STARTFONT 2.1
COMMENT $XConsortium: lubR24.bdf,v 1.9 94/04/02 16:11:05 gildea Exp $
COMMENT  (c) Copyright Bigelow & Holmes 1986, 1985. Lucida is a registered
COMMENT  trademark of Bigelow & Holmes. See LEGAL NOTICE file for terms 
COMMENT  of the license. 
COMMENT  
COMMENT  Translation to ISO8859-2 by Cub Soft;  Petr.Kolar@vslib.cz
COMMENT  
FONT -B&H-LucidaBright-Medium-R-Normal--24-240-75-75-P-137-ISO8859-2
SIZE 24 72 72
FONTBOUNDINGBOX 39 26 -15 -5
STARTPROPERTIES 20
COMMENT Begin LogicalFontDescription
FONTNAME_REGISTRY ""
FOUNDRY "B&H"
FAMILY_NAME "LucidaBright"
WEIGHT_NAME "Medium"
SLANT "R"
SETWIDTH_NAME "Normal"
ADD_STYLE_NAME ""
PIXEL_SIZE 24
POINT_SIZE 240
RESOLUTION_X 75
RESOLUTION_Y 75
SPACING "P"
AVERAGE_WIDTH 137
CHARSET_REGISTRY "ISO8859"
CHARSET_ENCODING "2"
COMMENT END LogicalFontDescription
FONT_ASCENT 22
FONT_DESCENT 6
DEFAULT_CHAR 0
COPYRIGHT "Copyright Bigelow & Holmes 1986, 1985., Copyright 1996 Cub Soft"
FACE_NAME "Lucida Bright"
ENDPROPERTIES
CHARS 191
STARTCHAR space
ENCODING 32
SWIDTH 333 0
DWIDTH 7 0
BBX 1 1 0 0
BITMAP
00
ENDCHAR
STARTCHAR exclam
ENCODING 33
SWIDTH 265 0
DWIDTH 6 0
BBX 2 17 2 0
BITMAP
c0
c0
c0
c0
c0
c0
c0
c0
80
80
80
80
00
00
00
c0
c0
ENDCHAR
STARTCHAR quotedbl
ENCODING 34
SWIDTH 386 0
DWIDTH 9 0
BBX 7 5 1 12
BITMAP
c6
c6
c6
44
44
ENDCHAR
STARTCHAR numbersign
ENCODING 35
SWIDTH 608 0
DWIDTH 15 0
BBX 15 17 0 0
BITMAP
0118
0210
0210
0210
0220
7ffe
0420
0440
0440
0840
fffc
0880
1880
1080
1080
1100
3100
ENDCHAR
STARTCHAR dollar
ENCODING 36
SWIDTH 608 0
DWIDTH 15 0
BBX 10 21 2 -2
BITMAP
0400
0400
1f80
34c0
6440
6440
6400
6400
3400
1c00
0f00
0780
05c0
04c0
04c0
84c0
8480
c580
7e00
0400
0400
ENDCHAR
STARTCHAR percent
ENCODING 37
SWIDTH 675 0
DWIDTH 16 0
BBX 15 17 1 0
BITMAP
3806
440c
8208
8210
8220
8240
44c0
3880
0138
0244
0682
0482
0882
1082
2082
6044
c038
ENDCHAR
STARTCHAR ampersand
ENCODING 38
SWIDTH 690 0
DWIDTH 17 0
BBX 17 17 0 0
BITMAP
07c000
0c6000
183000
183000
183000
1c6000
0ec000
1f0000
638f80
418200
c1c200
c0e200
c07200
e03400
601c00
383e00
1fcf80
ENDCHAR
STARTCHAR apostrophe
ENCODING 39
SWIDTH 265 0
DWIDTH 6 0
BBX 3 6 2 11
BITMAP
e0
e0
60
20
c0
80
ENDCHAR
STARTCHAR parenleft
ENCODING 40
SWIDTH 316 0
DWIDTH 8 0
BBX 5 21 1 -4
BITMAP
08
10
30
20
60
40
40
c0
c0
c0
c0
c0
c0
c0
40
40
60
20
30
10
08
ENDCHAR
STARTCHAR parenright
ENCODING 41
SWIDTH 316 0
DWIDTH 8 0
BBX 5 21 1 -4
BITMAP
80
40
60
20
30
10
10
18
18
18
18
18
18
18
10
10
30
20
60
40
80
ENDCHAR
STARTCHAR asterisk
ENCODING 42
SWIDTH 470 0
DWIDTH 11 0
BBX 9 8 1 9
BITMAP
0800
0800
8880
f780
0000
1400
6200
2300
ENDCHAR
STARTCHAR plus
ENCODING 43
SWIDTH 608 0
DWIDTH 15 0
BBX 13 14 1 0
BITMAP
0200
0200
0200
0200
0200
0200
0200
fff8
0200
0200
0200
0200
0200
0200
ENDCHAR
STARTCHAR comma
ENCODING 44
SWIDTH 265 0
DWIDTH 6 0
BBX 3 9 2 -5
BITMAP
e0
e0
e0
e0
60
20
20
40
c0
ENDCHAR
STARTCHAR minus
ENCODING 45
SWIDTH 608 0
DWIDTH 15 0
BBX 14 1 0 7
BITMAP
fffc
ENDCHAR
STARTCHAR period
ENCODING 46
SWIDTH 265 0
DWIDTH 6 0
BBX 3 2 2 0
BITMAP
e0
e0
ENDCHAR
STARTCHAR slash
ENCODING 47
SWIDTH 512 0
DWIDTH 12 0
BBX 12 21 0 -4
BITMAP
0030
0020
0060
0040
00c0
0080
0180
0100
0300
0200
0600
0400
0c00
0800
1800
1000
3000
2000
6000
4000
c000
ENDCHAR
STARTCHAR zero
ENCODING 48
SWIDTH 608 0
DWIDTH 15 0
BBX 12 17 1 0
BITMAP
0f00
30c0
6060
6060
4020
c030
c030
c030
c030
c030
c030
c030
4020
6060
6060
30c0
0f00
ENDCHAR
STARTCHAR one
ENCODING 49
SWIDTH 608 0
DWIDTH 15 0
BBX 8 17 3 0
BITMAP
f8
18
18
18
18
18
18
18
18
18
18
18
18
18
18
18
ff
ENDCHAR
STARTCHAR two
ENCODING 50
SWIDTH 608 0
DWIDTH 15 0
BBX 10 17 2 0
BITMAP
3e00
c380
81c0
80c0
00c0
00c0
00c0
0180
0300
0600
0800
3000
2000
4000
4000
ffc0
ffc0
ENDCHAR
STARTCHAR three
ENCODING 51
SWIDTH 608 0
DWIDTH 15 0
BBX 10 17 2 0
BITMAP
7e00
c180
80c0
80c0
00c0
00c0
0380
7e00
0300
0180
00c0
00c0
00c0
80c0
8180
c380
fe00
ENDCHAR
STARTCHAR four
ENCODING 52
SWIDTH 608 0
DWIDTH 15 0
BBX 12 17 1 0
BITMAP
00c0
01c0
01c0
02c0
04c0
08c0
18c0
10c0
20c0
40c0
c0c0
fff0
00c0
00c0
00c0
00c0
03f0
ENDCHAR
STARTCHAR five
ENCODING 53
SWIDTH 608 0
DWIDTH 15 0
BBX 9 17 3 0
BITMAP
ff80
ff80
8000
8000
8000
8000
f800
0e00
0300
0180
0180
0180
0180
8180
8300
c600
fc00
ENDCHAR
STARTCHAR six
ENCODING 54
SWIDTH 608 0
DWIDTH 15 0
BBX 12 17 1 0
BITMAP
0fc0
1060
2020
6020
4000
c000
cf80
d060
e020
c030
c030
c030
4030
6030
6060
30c0
0f80
ENDCHAR
STARTCHAR seven
ENCODING 55
SWIDTH 608 0
DWIDTH 15 0
BBX 11 17 2 0
BITMAP
ffe0
ffe0
0040
00c0
0080
0100
0300
0200
0400
0c00
0800
1800
3000
3000
3000
6000
6000
ENDCHAR
STARTCHAR eight
ENCODING 56
SWIDTH 608 0
DWIDTH 15 0
BBX 12 17 1 0
BITMAP
0fc0
3060
6030
6030
6030
7020
3c40
1f80
3780
61e0
4060
c030
c030
c030
e060
70e0
1f80
ENDCHAR
STARTCHAR nine
ENCODING 57
SWIDTH 608 0
DWIDTH 15 0
BBX 12 17 1 0
BITMAP
1f00
30c0
6060
c060
c020
c030
c030
c030
4070
60b0
1f30
0030
0020
4060
4040
6080
3f00
ENDCHAR
STARTCHAR colon
ENCODING 58
SWIDTH 265 0
DWIDTH 6 0
BBX 2 13 2 0
BITMAP
c0
c0
00
00
00
00
00
00
00
00
00
c0
c0
ENDCHAR
STARTCHAR semicolon
ENCODING 59
SWIDTH 265 0
DWIDTH 6 0
BBX 2 18 2 -5
BITMAP
c0
c0
00
00
00
00
00
00
00
00
00
c0
c0
40
40
40
40
80
ENDCHAR
STARTCHAR less
ENCODING 60
SWIDTH 608 0
DWIDTH 15 0
BBX 14 14 0 0
BITMAP
0004
0018
0070
01c0
0700
1c00
f000
7000
1c00
0700
01c0
0070
001c
0004
ENDCHAR
STARTCHAR equal
ENCODING 61
SWIDTH 608 0
DWIDTH 15 0
BBX 14 6 0 4
BITMAP
fffc
0000
0000
0000
0000
fffc
ENDCHAR
STARTCHAR greater
ENCODING 62
SWIDTH 608 0
DWIDTH 15 0
BBX 14 14 0 0
BITMAP
8000
e000
3800
0e00
0380
00e0
0038
003c
00e0
0380
0e00
3800
6000
8000
ENDCHAR
STARTCHAR question
ENCODING 63
SWIDTH 480 0
DWIDTH 12 0
BBX 10 17 1 0
BITMAP
7f00
c380
80c0
80c0
00c0
0080
0180
0200
0400
0800
1800
1800
1800
0000
0000
1800
1800
ENDCHAR
STARTCHAR at
ENCODING 64
SWIDTH 873 0
DWIDTH 21 0
BBX 19 17 1 0
BITMAP
00fc00
030300
0c0080
100040
20fc20
610c20
430820
841820
841820
843840
8450c0
84d180
c31e00
400000
200000
181000
07e000
ENDCHAR
STARTCHAR A
ENCODING 65
SWIDTH 744 0
DWIDTH 18 0
BBX 18 17 0 0
BITMAP
008000
00c000
00c000
01e000
016000
026000
023000
043000
041800
081800
081c00
0ffc00
100e00
100600
200600
600700
f80fc0
ENDCHAR
STARTCHAR B
ENCODING 66
SWIDTH 609 0
DWIDTH 15 0
BBX 13 17 0 0
BITMAP
ffc0
30e0
3030
3030
3030
3030
3060
30c0
3fc0
30f0
3030
3018
3018
3018
3038
3070
ffe0
ENDCHAR
STARTCHAR C
ENCODING 67
SWIDTH 695 0
DWIDTH 17 0
BBX 14 17 1 0
BITMAP
07f8
1c1c
3004
6004
6000
c000
c000
c000
c000
c000
c000
c000
6000
6000
3000
1c04
07f8
ENDCHAR
STARTCHAR D
ENCODING 68
SWIDTH 768 0
DWIDTH 18 0
BBX 16 17 1 0
BITMAP
ffe0
3038
300c
3006
3006
3003
3003
3003
3003
3003
3003
3003
3006
3006
300c
3838
ffe0
ENDCHAR
STARTCHAR E
ENCODING 69
SWIDTH 566 0
DWIDTH 14 0
BBX 12 17 1 0
BITMAP
ffe0
3020
3020
3000
3000
3000
3000
3040
3fc0
3040
3000
3000
3000
3000
3010
3010
fff0
ENDCHAR
STARTCHAR F
ENCODING 70
SWIDTH 548 0
DWIDTH 13 0
BBX 11 17 1 0
BITMAP
ffe0
3020
3020
3000
3000
3000
3000
3040
3fc0
3040
3000
3000
3000
3000
3000
3800
fe00
ENDCHAR
STARTCHAR G
ENCODING 71
SWIDTH 732 0
DWIDTH 18 0
BBX 16 17 1 0
BITMAP
07f0
1c1c
3004
6004
6000
c000
c000
c000
c000
c000
c03f
c00c
600c
600c
300c
1c0c
07f8
ENDCHAR
STARTCHAR H
ENCODING 72
SWIDTH 771 0
DWIDTH 19 0
BBX 17 17 1 0
BITMAP
fc1f80
300600
300600
300600
300600
300600
300600
300600
3ffe00
300600
300600
300600
300600
300600
300600
300600
fc1f80
ENDCHAR
STARTCHAR I
ENCODING 73
SWIDTH 325 0
DWIDTH 8 0
BBX 6 17 1 0
BITMAP
fc
30
30
30
30
30
30
30
30
30
30
30
30
30
30
30
fc
ENDCHAR
STARTCHAR J
ENCODING 74
SWIDTH 422 0
DWIDTH 10 0
BBX 9 21 0 -4
BITMAP
3f80
0e00
0600
0600
0600
0600
0600
0600
0600
0600
0600
0600
0600
0600
0600
0600
0600
8600
8400
8c00
f800
ENDCHAR
STARTCHAR K
ENCODING 75
SWIDTH 708 0
DWIDTH 17 0
BBX 16 17 1 0
BITMAP
fc7e
3018
3030
3040
3080
3100
3200
3400
3e00
3700
3380
31c0
30e0
3070
3038
301c
fc7f
ENDCHAR
STARTCHAR L
ENCODING 76
SWIDTH 557 0
DWIDTH 13 0
BBX 12 17 1 0
BITMAP
fc00
3000
3000
3000
3000
3000
3000
3000
3000
3000
3000
3000
3000
3000
3010
3030
fff0
ENDCHAR
STARTCHAR M
ENCODING 77
SWIDTH 860 0
DWIDTH 21 0
BBX 19 17 1 0
BITMAP
f801e0
380380
3c0380
2c0780
2c0580
260580
260980
270980
231180
231180
219180
21a180
20e180
20c180
20c180
200180
f807e0
ENDCHAR
STARTCHAR N
ENCODING 78
SWIDTH 751 0
DWIDTH 18 0
BBX 17 17 1 0
BITMAP
f00f80
380200
3c0200
2c0200
2e0200
270200
238200
218200
20c200
20e200
207200
203200
201a00
200e00
200e00
200600
f80200
ENDCHAR
STARTCHAR O
ENCODING 79
SWIDTH 777 0
DWIDTH 19 0
BBX 16 17 1 0
BITMAP
07e0
1c38
300c
6006
6006
c003
c003
c003
c003
c003
c003
c003
6006
6006
300c
1818
07e0
ENDCHAR
STARTCHAR P
ENCODING 80
SWIDTH 573 0
DWIDTH 14 0
BBX 13 17 0 0
BITMAP
ffc0
3070
3018
3018
3018
3018
3018
3030
30e0
3f80
3000
3000
3000
3000
3000
3000
fc00
ENDCHAR
STARTCHAR Q
ENCODING 81
SWIDTH 778 0
DWIDTH 19 0
BBX 19 21 1 -4
BITMAP
07e000
1c3800
300c00
600600
600600
c00300
c00300
c00300
c00300
c00300
c00300
c00300
600600
600600
300c00
181c00
07f000
003000
000c00
000780
0001e0
ENDCHAR
STARTCHAR R
ENCODING 82
SWIDTH 679 0
DWIDTH 16 0
BBX 15 17 1 0
BITMAP
ffc0
3060
3030
3030
3030
3030
3020
3060
30c0
3f80
3180
30c0
30e0
3060
3030
3038
fc1e
ENDCHAR
STARTCHAR S
ENCODING 83
SWIDTH 542 0
DWIDTH 13 0
BBX 10 17 2 0
BITMAP
3f00
6180
c080
c080
c000
e000
7000
3c00
1e00
0780
01c0
00c0
00c0
80c0
8080
c180
7e00
ENDCHAR
STARTCHAR T
ENCODING 84
SWIDTH 663 0
DWIDTH 16 0
BBX 14 17 1 0
BITMAP
fffc
8304
0300
0300
0300
0300
0300
0300
0300
0300
0300
0300
0300
0300
0300
0300
0fc0
ENDCHAR
STARTCHAR U
ENCODING 85
SWIDTH 719 0
DWIDTH 17 0
BBX 16 17 1 0
BITMAP
fc1f
3004
3004
3004
3004
3004
3004
3004
3004
3004
3004
3004
3004
3004
1808
1c18
07e0
ENDCHAR
STARTCHAR V
ENCODING 86
SWIDTH 699 0
DWIDTH 17 0
BBX 17 17 0 0
BITMAP
fc0f80
300300
300200
180200
180400
0c0400
0c0800
0e0800
060800
061000
031000
032000
01a000
01a000
01c000
00c000
008000
ENDCHAR
STARTCHAR W
ENCODING 87
SWIDTH 925 0
DWIDTH 22 0
BBX 22 17 0 0
BITMAP
fc107c
703018
303010
303810
183820
185820
185c20
184c40
0c8c40
0c8c40
0c8680
070680
070680
070380
060300
020300
020100
ENDCHAR
STARTCHAR X
ENCODING 88
SWIDTH 657 0
DWIDTH 16 0
BBX 16 17 0 0
BITMAP
fe1f
3804
1c08
0c18
0e10
0620
0340
03c0
01c0
02c0
0660
0470
0830
1038
3018
601c
f87f
ENDCHAR
STARTCHAR Y
ENCODING 89
SWIDTH 678 0
DWIDTH 16 0
BBX 16 17 0 0
BITMAP
fe1f
3806
180c
1c08
0c10
0610
0720
0340
01c0
0180
0180
0180
0180
0180
0180
0180
07e0
ENDCHAR
STARTCHAR Z
ENCODING 90
SWIDTH 633 0
DWIDTH 15 0
BBX 12 17 1 0
BITMAP
fff0
c070
80e0
80c0
01c0
0180
0300
0700
0600
0c00
1c00
1800
3000
7000
6010
e030
fff0
ENDCHAR
STARTCHAR bracketleft
ENCODING 91
SWIDTH 316 0
DWIDTH 8 0
BBX 5 21 2 -4
BITMAP
f8
c0
c0
c0
c0
c0
c0
c0
c0
c0
c0
c0
c0
c0
c0
c0
c0
c0
c0
c0
f8
ENDCHAR
STARTCHAR backslash
ENCODING 92
SWIDTH 512 0
DWIDTH 12 0
BBX 12 21 0 -4
BITMAP
c000
4000
6000
2000
3000
1000
1800
0800
0c00
0400
0600
0200
0300
0100
0180
0080
00c0
0040
0060
0020
0030
ENDCHAR
STARTCHAR bracketright
ENCODING 93
SWIDTH 316 0
DWIDTH 8 0
BBX 5 21 1 -4
BITMAP
f8
18
18
18
18
18
18
18
18
18
18
18
18
18
18
18
18
18
18
18
f8
ENDCHAR
STARTCHAR asciicircum
ENCODING 94
SWIDTH 608 0
DWIDTH 15 0
BBX 14 14 0 3
BITMAP
0100
0300
0300
0780
0480
0cc0
0840
1860
1020
3030
2010
6018
4008
c00c
ENDCHAR
STARTCHAR underscore
ENCODING 95
SWIDTH 500 0
DWIDTH 12 0
BBX 10 1 1 -2
BITMAP
ffc0
ENDCHAR
STARTCHAR grave
ENCODING 96
SWIDTH 602 0
DWIDTH 14 0
BBX 5 3 4 14
BITMAP
e0
30
18
ENDCHAR
STARTCHAR a
ENCODING 97
SWIDTH 543 0
DWIDTH 13 0
BBX 12 13 1 0
BITMAP
3f00
6180
40c0
00c0
00c0
1fc0
70c0
e0c0
c0c0
c0c0
c0c0
61c0
3e70
ENDCHAR
STARTCHAR b
ENCODING 98
SWIDTH 611 0
DWIDTH 15 0
BBX 13 17 0 0
BITMAP
f000
3000
3000
3000
33c0
3470
3830
3018
3018
3018
3018
3018
3018
3010
3030
3820
27c0
ENDCHAR
STARTCHAR c
ENCODING 99
SWIDTH 509 0
DWIDTH 12 0
BBX 10 13 1 0
BITMAP
0fc0
30c0
6040
6040
c000
c000
c000
c000
c000
6000
6000
3040
0f80
ENDCHAR
STARTCHAR d
ENCODING 100
SWIDTH 642 0
DWIDTH 15 0
BBX 14 17 1 0
BITMAP
00f0
0030
0030
0030
1fb0
30f0
6030
4030
c030
c030
c030
c030
c030
c030
6070
70b0
1f3c
ENDCHAR
STARTCHAR e
ENCODING 101
SWIDTH 530 0
DWIDTH 13 0
BBX 10 13 1 0
BITMAP
1e00
3180
6080
40c0
c0c0
ffc0
c000
c000
c000
6000
6000
3040
0f80
ENDCHAR
STARTCHAR f
ENCODING 102
SWIDTH 404 0
DWIDTH 10 0
BBX 9 19 1 0
BITMAP
0f00
1180
3080
3080
3000
3000
ff00
3000
3000
3000
3000
3000
3000
3000
3000
3000
3000
3800
fe00
ENDCHAR
STARTCHAR g
ENCODING 103
SWIDTH 571 0
DWIDTH 14 0
BBX 13 18 1 -5
BITMAP
1ff8
30c0
70e0
6060
6060
6060
6060
30c0
10c0
3f00
6000
6000
3fe0
4030
c030
c030
6060
3f80
ENDCHAR
STARTCHAR h
ENCODING 104
SWIDTH 633 0
DWIDTH 15 0
BBX 14 17 1 0
BITMAP
f000
3000
3000
3000
33c0
3460
3830
3030
3030
3030
3030
3030
3030
3030
3030
3030
fcfc
ENDCHAR
STARTCHAR i
ENCODING 105
SWIDTH 307 0
DWIDTH 7 0
BBX 6 17 1 0
BITMAP
30
30
00
00
f0
30
30
30
30
30
30
30
30
30
30
30
fc
ENDCHAR
STARTCHAR j
ENCODING 106
SWIDTH 346 0
DWIDTH 8 0
BBX 7 22 0 -5
BITMAP
06
06
00
00
3e
0e
06
06
06
06
06
06
06
06
06
06
06
06
86
86
8c
f8
ENDCHAR
STARTCHAR k
ENCODING 107
SWIDTH 599 0
DWIDTH 14 0
BBX 14 17 0 0
BITMAP
f000
3000
3000
3000
30f8
3020
30c0
3180
3300
3600
3e00
3700
3380
31c0
30e0
3070
fc3c
ENDCHAR
STARTCHAR l
ENCODING 108
SWIDTH 313 0
DWIDTH 8 0
BBX 6 17 1 0
BITMAP
f0
30
30
30
30
30
30
30
30
30
30
30
30
30
30
30
fc
ENDCHAR
STARTCHAR m
ENCODING 109
SWIDTH 946 0
DWIDTH 23 0
BBX 22 13 1 0
BITMAP
f3e3c0
347460
383830
303030
303030
303030
303030
303030
303030
303030
303030
303030
fcfcfc
ENDCHAR
STARTCHAR n
ENCODING 110
SWIDTH 633 0
DWIDTH 15 0
BBX 14 13 1 0
BITMAP
f3c0
3460
3830
3030
3030
3030
3030
3030
3030
3030
3030
3030
fcfc
ENDCHAR
STARTCHAR o
ENCODING 111
SWIDTH 602 0
DWIDTH 14 0
BBX 12 13 1 0
BITMAP
1f80
30c0
6060
6060
c030
c030
c030
c030
c030
6060
6060
30c0
1f80
ENDCHAR
STARTCHAR p
ENCODING 112
SWIDTH 642 0
DWIDTH 15 0
BBX 13 18 1 -5
BITMAP
f3c0
3470
3830
3018
3018
3018
3018
3018
3018
3010
3030
3820
37c0
3000
3000
3000
3000
fc00
ENDCHAR
STARTCHAR q
ENCODING 113
SWIDTH 617 0
DWIDTH 15 0
BBX 14 18 1 -5
BITMAP
1fb0
30f0
6030
4030
c030
c030
c030
c030
c030
c030
6070
70b0
1f30
0030
0030
0030
0030
00fc
ENDCHAR
STARTCHAR r
ENCODING 114
SWIDTH 440 0
DWIDTH 11 0
BBX 9 13 1 0
BITMAP
f780
3c80
3080
3080
3000
3000
3000
3000
3000
3000
3000
3000
fc00
ENDCHAR
STARTCHAR s
ENCODING 115
SWIDTH 504 0
DWIDTH 12 0
BBX 9 13 2 0
BITMAP
3e00
6300
c100
c100
e000
7800
3e00
0f00
0180
8180
8180
c300
7e00
ENDCHAR
STARTCHAR t
ENCODING 116
SWIDTH 392 0
DWIDTH 9 0
BBX 8 16 1 0
BITMAP
30
30
30
ff
30
30
30
30
30
30
30
30
30
30
38
1f
ENDCHAR
STARTCHAR u
ENCODING 117
SWIDTH 633 0
DWIDTH 15 0
BBX 14 13 0 0
BITMAP
f0f0
3030
3030
3030
3030
3030
3030
3030
3030
3030
3030
18f0
0f3c
ENDCHAR
STARTCHAR v
ENCODING 118
SWIDTH 545 0
DWIDTH 13 0
BBX 13 13 0 0
BITMAP
f878
7010
3030
3020
1820
1840
1c40
0c80
0c80
0700
0700
0300
0200
ENDCHAR
STARTCHAR w
ENCODING 119
SWIDTH 795 0
DWIDTH 19 0
BBX 19 13 0 0
BITMAP
fc41e0
706040
306040
30f080
30b080
39b180
191900
191900
1e1e00
0e0e00
0e0e00
0c0400
040400
ENDCHAR
STARTCHAR x
ENCODING 120
SWIDTH 557 0
DWIDTH 13 0
BBX 13 13 0 0
BITMAP
fc78
7030
3860
1840
0c80
0f00
0700
0780
0980
10c0
20e0
6070
f1f8
ENDCHAR
STARTCHAR y
ENCODING 121
SWIDTH 551 0
DWIDTH 13 0
BBX 13 18 0 -5
BITMAP
fc78
7010
3010
3020
1820
1840
1c40
0cc0
0c80
0680
0700
0700
0200
0200
0600
0c00
1c00
3800
ENDCHAR
STARTCHAR z
ENCODING 122
SWIDTH 595 0
DWIDTH 14 0
BBX 11 13 2 0
BITMAP
ffe0
80c0
81c0
0380
0300
0600
0e00
1c00
1800
3000
7020
e020
ffe0
ENDCHAR
STARTCHAR braceleft
ENCODING 123
SWIDTH 343 0
DWIDTH 8 0
BBX 6 21 1 -4
BITMAP
0c
10
20
20
30
30
10
10
10
20
c0
20
10
10
10
30
30
20
20
10
0c
ENDCHAR
STARTCHAR bar
ENCODING 124
SWIDTH 241 0
DWIDTH 6 0
BBX 1 21 2 -4
BITMAP
80
80
80
80
80
80
80
80
80
80
80
80
80
80
80
80
80
80
80
80
80
ENDCHAR
STARTCHAR braceright
ENCODING 125
SWIDTH 343 0
DWIDTH 8 0
BBX 6 21 1 -4
BITMAP
c0
20
10
10
10
30
20
20
20
10
0c
10
20
20
20
30
10
10
10
20
c0
ENDCHAR
STARTCHAR asciitilde
ENCODING 126
SWIDTH 608 0
DWIDTH 15 0
BBX 14 6 0 4
BITMAP
3804
4c04
8204
8104
8088
8070
ENDCHAR
STARTCHAR nobreakspace
ENCODING 160
SWIDTH 333 0
DWIDTH 7 0
BBX 1 1 0 0
BITMAP
00
ENDCHAR
STARTCHAR Aogonek
ENCODING 161
SWIDTH 744 0
DWIDTH 18 0
BBX 18 20 0 -3
BITMAP
008000
00c000
00c000
01e000
016000
026000
023000
043000
041800
081800
081c00
0ffc00
100e00
100600
200600
600700
f80fc0
00c000
018000
01e000
ENDCHAR
STARTCHAR breve
ENCODING 162
SWIDTH 602 0
DWIDTH 14 0
BBX 8 3 3 14
BITMAP
81
7e
3c
ENDCHAR
STARTCHAR Lstroke
ENCODING 163
SWIDTH 557 0
DWIDTH 13 0
BBX 12 17 1 0
BITMAP
fc00
3000
3000
3000
3000
3000
3200
3c00
3000
f000
b000
3000
3000
3000
3010
3030
fff0
ENDCHAR
STARTCHAR currency
ENCODING 164
SWIDTH 608 0
DWIDTH 15 0
BBX 15 15 0 1
BITMAP
8002
4004
27c8
1830
1010
2008
2008
2008
2008
3018
1010
1c70
27c8
4004
8002
ENDCHAR
STARTCHAR Lcaron
ENCODING 165
SWIDTH 557 0
DWIDTH 13 0
BBX 12 19 1 0
BITMAP
01c0
01c0
fcc0
3040
3180
3100
3000
3000
3000
3000
3000
3000
3000
3000
3000
3000
3010
3030
fff0
ENDCHAR
STARTCHAR Sacute
ENCODING 166
SWIDTH 542 0
DWIDTH 13 0
BBX 10 21 2 0
BITMAP
0380
0600
0c00
0000
3f00
6180
c080
c080
c000
e000
7000
3c00
1e00
0780
01c0
00c0
00c0
80c0
8080
c180
7e00
ENDCHAR
STARTCHAR section
ENCODING 167
SWIDTH 608 0
DWIDTH 15 0
BBX 10 22 2 -5
BITMAP
3f00
6180
c080
c080
c000
c000
7000
3c00
4f00
c380
c180
c080
f080
7c80
1f00
0780
01c0
00c0
80c0
80c0
c180
7f00
ENDCHAR
STARTCHAR diaeresis
ENCODING 168
SWIDTH 602 0
DWIDTH 14 0
BBX 7 2 4 15
BITMAP
c6
c6
ENDCHAR
STARTCHAR Scaron
ENCODING 169
SWIDTH 542 0
DWIDTH 13 0
BBX 10 21 2 0
BITMAP
6180
3300
1e00
0000
3f00
6180
c080
c080
c000
e000
7000
3c00
1e00
0780
01c0
00c0
00c0
80c0
8080
c180
7e00
ENDCHAR
STARTCHAR Scedilla
ENCODING 170
SWIDTH 542 0
DWIDTH 13 0
BBX 10 23 2 -6
BITMAP
3f00
6180
c080
c080
c000
e000
7000
3c00
1e00
0780
01c0
00c0
00c0
80c0
8080
c180
7e00
0c00
0800
0400
0200
0200
1c00
ENDCHAR
STARTCHAR Tcaron
ENCODING 171
SWIDTH 663 0
DWIDTH 16 0
BBX 14 21 1 0
BITMAP
1860
0cc0
0780
0000
fffc
8304
0300
0300
0300
0300
0300
0300
0300
0300
0300
0300
0300
0300
0300
0300
0fc0
ENDCHAR
STARTCHAR Zacute
ENCODING 172
SWIDTH 633 0
DWIDTH 15 0
BBX 12 21 1 0
BITMAP
01c0
0300
0600
0000
fff0
c070
80e0
80c0
01c0
0180
0300
0700
0600
0c00
1c00
1800
3000
7000
6010
e030
fff0
ENDCHAR
STARTCHAR hyphen
ENCODING 173
SWIDTH 325 0
DWIDTH 8 0
BBX 5 1 1 8
BITMAP
f8
ENDCHAR
STARTCHAR Zcaron
ENCODING 174
SWIDTH 633 0
DWIDTH 15 0
BBX 12 21 1 0
BITMAP
30c0
1980
0f00
0000
fff0
c070
80e0
80c0
01c0
0180
0300
0700
0600
0c00
1c00
1800
3000
7000
6010
e030
fff0
ENDCHAR
STARTCHAR Zabovedot
ENCODING 175
SWIDTH 633 0
DWIDTH 15 0
BBX 12 20 1 0
BITMAP
0600
0600
0000
fff0
c070
80e0
80c0
01c0
0180
0300
0700
0600
0c00
1c00
1800
3000
7000
6010
e030
fff0
ENDCHAR
STARTCHAR degree
ENCODING 176
SWIDTH 259 0
DWIDTH 6 0
BBX 4 4 1 13
BITMAP
60
90
90
60
ENDCHAR
STARTCHAR aogonek
ENCODING 177
SWIDTH 543 0
DWIDTH 13 0
BBX 12 16 1 -3
BITMAP
3f00
6180
40c0
00c0
00c0
1fc0
70c0
e0c0
c0c0
c0c0
c0c0
61c0
3e70
0600
0c00
0f00
ENDCHAR
STARTCHAR ogonek
ENCODING 178
SWIDTH 602 0
DWIDTH 14 0
BBX 4 3 6 -4
BITMAP
60
c0
f0
ENDCHAR
STARTCHAR lstroke
ENCODING 179
SWIDTH 313 0
DWIDTH 8 0
BBX 8 17 0 0
BITMAP
f8
18
18
18
18
18
19
1e
18
f8
98
18
18
18
18
18
ff
ENDCHAR
STARTCHAR acute
ENCODING 180
SWIDTH 602 0
DWIDTH 14 0
BBX 5 3 5 14
BITMAP
38
60
c0
ENDCHAR
STARTCHAR lcaron
ENCODING 181
SWIDTH 416 0
DWIDTH 10 0
BBX 8 19 1 0
BITMAP
07
07
f3
31
36
34
30
30
30
30
30
30
30
30
30
30
30
30
fc
ENDCHAR
STARTCHAR sacute
ENCODING 182
SWIDTH 504 0
DWIDTH 12 0
BBX 9 17 2 0
BITMAP
0700
0c00
1800
0000
3e00
6300
c100
c100
e000
7800
3e00
0f00
0180
8180
8180
c300
7e00
ENDCHAR
STARTCHAR caron
ENCODING 183
SWIDTH 602 0
DWIDTH 14 0
BBX 8 3 3 14
BITMAP
c3
66
3c
ENDCHAR
STARTCHAR cedilla
ENCODING 184
SWIDTH 602 0
DWIDTH 14 0
BBX 4 6 6 -5
BITMAP
60
40
20
10
10
e0
ENDCHAR
STARTCHAR scaron
ENCODING 185
SWIDTH 504 0
DWIDTH 12 0
BBX 9 17 2 0
BITMAP
c300
6600
3c00
0000
3e00
6300
c100
c100
e000
7800
3e00
0f00
0180
8180
8180
c300
7e00
ENDCHAR
STARTCHAR scedilla
ENCODING 186
SWIDTH 504 0
DWIDTH 12 0
BBX 9 19 2 -6
BITMAP
3e00
6300
c100
c100
e000
7800
3e00
0f00
0180
8180
8180
c300
7e00
0c00
0800
0400
0200
0200
1c00
ENDCHAR
STARTCHAR tcaron
ENCODING 187
SWIDTH 392 0
DWIDTH 9 0
BBX 8 20 1 0
BITMAP
07
07
03
01
36
34
30
ff
30
30
30
30
30
30
30
30
30
30
38
1f
ENDCHAR
STARTCHAR zacute
ENCODING 188
SWIDTH 595 0
DWIDTH 14 0
BBX 11 17 2 0
BITMAP
01c0
0300
0600
0000
ffe0
80c0
81c0
0380
0300
0600
0e00
1c00
1800
3000
7020
e020
ffe0
ENDCHAR
STARTCHAR doubleacute
ENCODING 189
SWIDTH 602 0
DWIDTH 14 0
BBX 7 3 5 14
BITMAP
36
48
90
ENDCHAR
STARTCHAR zcaron
ENCODING 190
SWIDTH 595 0
DWIDTH 14 0
BBX 11 17 2 0
BITMAP
30c0
1980
0f00
0000
ffe0
80c0
81c0
0380
0300
0600
0e00
1c00
1800
3000
7020
e020
ffe0
ENDCHAR
STARTCHAR zabovedot
ENCODING 191
SWIDTH 595 0
DWIDTH 14 0
BBX 11 16 2 0
BITMAP
0600
0600
0000
ffe0
80c0
81c0
0380
0300
0600
0e00
1c00
1800
3000
7020
e020
ffe0
ENDCHAR
STARTCHAR Racute
ENCODING 192
SWIDTH 679 0
DWIDTH 16 0
BBX 15 21 1 0
BITMAP
01c0
0300
0600
0000
ffc0
3060
3030
3030
3030
3030
3020
3060
30c0
3f80
3180
30c0
30e0
3060
3030
3038
fc1e
ENDCHAR
STARTCHAR Aacute
ENCODING 193
SWIDTH 744 0
DWIDTH 18 0
BBX 18 21 0 0
BITMAP
007000
00c000
018000
000000
008000
00c000
00c000
01e000
016000
026000
023000
043000
041800
081800
081c00
0ffc00
100e00
100600
200600
600700
f80fc0
ENDCHAR
STARTCHAR Acircumflex
ENCODING 194
SWIDTH 744 0
DWIDTH 18 0
BBX 18 21 0 0
BITMAP
01e000
033000
061800
000000
008000
00c000
00c000
01e000
016000
026000
023000
043000
041800
081800
081c00
0ffc00
100e00
100600
200600
600700
f80fc0
ENDCHAR
STARTCHAR Abreve
ENCODING 195
SWIDTH 744 0
DWIDTH 18 0
BBX 18 21 0 0
BITMAP
040800
03f000
01e000
000000
008000
00c000
00c000
01e000
016000
026000
023000
043000
041800
081800
081c00
0ffc00
100e00
100600
200600
600700
f80fc0
ENDCHAR
STARTCHAR Adiaeresis
ENCODING 196
SWIDTH 744 0
DWIDTH 18 0
BBX 18 20 0 0
BITMAP
063000
063000
000000
008000
00c000
00c000
01e000
016000
026000
023000
043000
041800
081800
081c00
0ffc00
100e00
100600
200600
600700
f80fc0
ENDCHAR
STARTCHAR Lacute
ENCODING 197
SWIDTH 557 0
DWIDTH 13 0
BBX 12 21 1 0
BITMAP
0e00
1800
3000
0000
fc00
3000
3000
3000
3000
3000
3000
3000
3000
3000
3000
3000
3000
3000
3010
3030
fff0
ENDCHAR
STARTCHAR Cacute
ENCODING 198
SWIDTH 695 0
DWIDTH 17 0
BBX 14 21 1 0
BITMAP
0070
00c0
0180
0000
07f8
1c1c
3004
6004
6000
c000
c000
c000
c000
c000
c000
c000
6000
6000
3000
1c04
07f8
ENDCHAR
STARTCHAR Ccedilla
ENCODING 199
SWIDTH 695 0
DWIDTH 17 0
BBX 14 22 1 -5
BITMAP
07f8
1c1c
3004
6004
6000
c000
c000
c000
c000
c000
c000
c000
6000
6000
3000
1c04
07f8
0200
0100
0080
0080
0700
ENDCHAR
STARTCHAR Ccaron
ENCODING 200
SWIDTH 695 0
DWIDTH 17 0
BBX 14 21 1 0
BITMAP
0c30
0660
03c0
0000
07f8
1c1c
3004
6004
6000
c000
c000
c000
c000
c000
c000
c000
6000
6000
3000
1c04
07f8
ENDCHAR
STARTCHAR Eacute
ENCODING 201
SWIDTH 566 0
DWIDTH 14 0
BBX 12 21 1 0
BITMAP
0380
0600
0c00
0000
ffe0
3020
3020
3000
3000
3000
3000
3040
3fc0
3040
3000
3000
3000
3000
3010
3010
fff0
ENDCHAR
STARTCHAR Eogonek
ENCODING 202
SWIDTH 566 0
DWIDTH 14 0
BBX 12 20 1 -3
BITMAP
ffe0
3020
3020
3000
3000
3000
3000
3040
3fc0
3040
3000
3000
3000
3000
3010
3010
fff0
0600
0c00
0f00
ENDCHAR
STARTCHAR Ediaeresis
ENCODING 203
SWIDTH 566 0
DWIDTH 14 0
BBX 12 20 1 0
BITMAP
18c0
18c0
0000
ffe0
3020
3020
3000
3000
3000
3000
3040
3fc0
3040
3000
3000
3000
3000
3010
3010
fff0
ENDCHAR
STARTCHAR Ecaron
ENCODING 204
SWIDTH 566 0
DWIDTH 14 0
BBX 12 21 1 0
BITMAP
30c0
1980
0f00
0000
ffe0
3020
3020
3000
3000
3000
3000
3040
3fc0
3040
3000
3000
3000
3000
3010
3010
fff0
ENDCHAR
STARTCHAR Iacute
ENCODING 205
SWIDTH 325 0
DWIDTH 8 0
BBX 6 21 1 0
BITMAP
1c
30
60
00
fc
30
30
30
30
30
30
30
30
30
30
30
30
30
30
30
fc
ENDCHAR
STARTCHAR Icircumflex
ENCODING 206
SWIDTH 325 0
DWIDTH 8 0
BBX 8 21 2 0
BITMAP
3c
66
c3
00
7e
18
18
18
18
18
18
18
18
18
18
18
18
18
18
18
7e
ENDCHAR
STARTCHAR Dcaron
ENCODING 207
SWIDTH 768 0
DWIDTH 18 0
BBX 16 21 1 0
BITMAP
1860
0cc0
0780
0000
ffe0
3038
300c
3006
3006
3003
3003
3003
3003
3003
3003
3003
3006
3006
300c
3838
ffe0
ENDCHAR
STARTCHAR Dstroke
ENCODING 208
SWIDTH 768 0
DWIDTH 18 0
BBX 16 17 1 0
BITMAP
ffe0
3038
300c
3006
3006
3003
3003
3003
ff03
3003
3003
3003
3006
3006
300c
3838
ffe0
ENDCHAR
STARTCHAR Nacute
ENCODING 209
SWIDTH 751 0
DWIDTH 18 0
BBX 17 21 1 0
BITMAP
003800
006000
00c000
000000
f00f80
380200
3c0200
2c0200
2e0200
270200
238200
218200
20c200
20e200
207200
203200
201a00
200e00
200e00
200600
f80200
ENDCHAR
STARTCHAR Ncaron
ENCODING 210
SWIDTH 751 0
DWIDTH 18 0
BBX 17 21 1 0
BITMAP
061800
033000
01e000
000000
f00f80
380200
3c0200
2c0200
2e0200
270200
238200
218200
20c200
20e200
207200
203200
201a00
200e00
200e00
200600
f80200
ENDCHAR
STARTCHAR Oacute
ENCODING 211
SWIDTH 777 0
DWIDTH 19 0
BBX 16 21 1 0
BITMAP
00e0
0180
0300
0000
07e0
1c38
300c
6006
6006
c003
c003
c003
c003
c003
c003
c003
6006
6006
300c
1818
07e0
ENDCHAR
STARTCHAR Ocircumflex
ENCODING 212
SWIDTH 777 0
DWIDTH 19 0
BBX 16 21 1 0
BITMAP
03c0
0660
0c30
0000
07e0
1c38
300c
6006
6006
c003
c003
c003
c003
c003
c003
c003
6006
6006
300c
1818
07e0
ENDCHAR
STARTCHAR Odoubleacute
ENCODING 213
SWIDTH 777 0
DWIDTH 19 0
BBX 16 21 1 0
BITMAP
00d8
0120
0240
0000
07e0
1c38
300c
6006
6006
c003
c003
c003
c003
c003
c003
c003
6006
6006
300c
1818
07e0
ENDCHAR
STARTCHAR Odiaeresis
ENCODING 214
SWIDTH 777 0
DWIDTH 19 0
BBX 16 20 1 0
BITMAP
0c60
0c60
0000
07e0
1c38
300c
6006
6006
c003
c003
c003
c003
c003
c003
c003
6006
6006
300c
1818
07e0
ENDCHAR
STARTCHAR multiply
ENCODING 215
SWIDTH 608 0
DWIDTH 15 0
BBX 14 14 0 0
BITMAP
8004
4008
2010
1020
0840
0480
0300
0300
0480
0840
1020
2010
4008
8004
ENDCHAR
STARTCHAR Rcaron
ENCODING 216
SWIDTH 679 0
DWIDTH 16 0
BBX 15 21 1 0
BITMAP
30c0
1980
0f00
0000
ffc0
3060
3030
3030
3030
3030
3020
3060
30c0
3f80
3180
30c0
30e0
3060
3030
3038
fc1e
ENDCHAR
STARTCHAR Uring
ENCODING 217
SWIDTH 719 0
DWIDTH 17 0
BBX 16 21 1 0
BITMAP
0180
0240
0180
0000
fc1f
3004
3004
3004
3004
3004
3004
3004
3004
3004
3004
3004
3004
3004
1808
1c18
07e0
ENDCHAR
STARTCHAR Uacute
ENCODING 218
SWIDTH 719 0
DWIDTH 17 0
BBX 16 21 1 0
BITMAP
00e0
0180
0300
0000
fc1f
3004
3004
3004
3004
3004
3004
3004
3004
3004
3004
3004
3004
3004
1808
1c18
07e0
ENDCHAR
STARTCHAR Udoubleacute
ENCODING 219
SWIDTH 719 0
DWIDTH 17 0
BBX 16 21 1 0
BITMAP
00d8
0120
0240
0000
fc1f
3004
3004
3004
3004
3004
3004
3004
3004
3004
3004
3004
3004
3004
1808
1c18
07e0
ENDCHAR
STARTCHAR Udiaeresis
ENCODING 220
SWIDTH 719 0
DWIDTH 17 0
BBX 16 20 1 0
BITMAP
0630
0630
0000
fc1f
3004
3004
3004
3004
3004
3004
3004
3004
3004
3004
3004
3004
3004
1808
1c18
07e0
ENDCHAR
STARTCHAR Yacute
ENCODING 221
SWIDTH 678 0
DWIDTH 16 0
BBX 16 21 0 0
BITMAP
00e0
0180
0300
0000
fe1f
3806
180c
1c08
0c10
0610
0720
0340
01c0
0180
0180
0180
0180
0180
0180
0180
07e0
ENDCHAR
STARTCHAR Tcedilla
ENCODING 222
SWIDTH 663 0
DWIDTH 16 0
BBX 14 23 1 -6
BITMAP
fffc
8304
0300
0300
0300
0300
0300
0300
0300
0300
0300
0300
0300
0300
0300
0300
0fc0
0300
0200
0100
0080
0080
0700
ENDCHAR
STARTCHAR ssharp
ENCODING 223
SWIDTH 614 0
DWIDTH 15 0
BBX 13 19 1 0
BITMAP
0f80
18c0
3060
3060
3060
3040
3080
3100
3100
3180
31c0
30e0
3070
3038
3008
3008
3108
3110
fde0
ENDCHAR
STARTCHAR racute
ENCODING 224
SWIDTH 440 0
DWIDTH 11 0
BBX 9 17 1 0
BITMAP
0380
0600
0c00
0000
f780
3c80
3080
3080
3000
3000
3000
3000
3000
3000
3000
3000
fc00
ENDCHAR
STARTCHAR aacute
ENCODING 225
SWIDTH 543 0
DWIDTH 13 0
BBX 12 17 1 0
BITMAP
0380
0600
0c00
0000
3f00
6180
40c0
00c0
00c0
1fc0
70c0
e0c0
c0c0
c0c0
c0c0
61c0
3e70
ENDCHAR
STARTCHAR acircumflex
ENCODING 226
SWIDTH 543 0
DWIDTH 13 0
BBX 12 17 1 0
BITMAP
0f00
1980
30c0
0000
3f00
6180
40c0
00c0
00c0
1fc0
70c0
e0c0
c0c0
c0c0
c0c0
61c0
3e70
ENDCHAR
STARTCHAR abreve
ENCODING 227
SWIDTH 543 0
DWIDTH 13 0
BBX 12 17 1 0
BITMAP
2040
1f80
0f00
0000
3f00
6180
40c0
00c0
00c0
1fc0
70c0
e0c0
c0c0
c0c0
c0c0
61c0
3e70
ENDCHAR
STARTCHAR adiaeresis
ENCODING 228
SWIDTH 543 0
DWIDTH 13 0
BBX 12 16 1 0
BITMAP
3180
3180
0000
3f00
6180
40c0
00c0
00c0
1fc0
70c0
e0c0
c0c0
c0c0
c0c0
61c0
3e70
ENDCHAR
STARTCHAR lacute
ENCODING 229
SWIDTH 313 0
DWIDTH 8 0
BBX 6 21 1 0
BITMAP
1c
30
60
00
f0
30
30
30
30
30
30
30
30
30
30
30
30
30
30
30
fc
ENDCHAR
STARTCHAR cacute
ENCODING 230
SWIDTH 509 0
DWIDTH 12 0
BBX 10 17 1 0
BITMAP
01c0
0300
0600
0000
0fc0
30c0
6040
6040
c000
c000
c000
c000
c000
6000
6000
3040
0f80
ENDCHAR
STARTCHAR ccedilla
ENCODING 231
SWIDTH 509 0
DWIDTH 12 0
BBX 10 18 1 -5
BITMAP
0fc0
30c0
6040
6040
c000
c000
c000
c000
c000
6000
6000
3040
0f80
0800
0400
0200
0200
1c00
ENDCHAR
STARTCHAR ccaron
ENCODING 232
SWIDTH 509 0
DWIDTH 12 0
BBX 10 17 1 0
BITMAP
30c0
1980
0f00
0000
0fc0
30c0
6040
6040
c000
c000
c000
c000
c000
6000
6000
3040
0f80
ENDCHAR
STARTCHAR eacute
ENCODING 233
SWIDTH 530 0
DWIDTH 13 0
BBX 10 17 1 0
BITMAP
0700
0c00
1800
0000
1e00
3180
6080
40c0
c0c0
ffc0
c000
c000
c000
6000
6000
3040
0f80
ENDCHAR
STARTCHAR eogonek
ENCODING 234
SWIDTH 530 0
DWIDTH 13 0
BBX 10 16 1 -3
BITMAP
1e00
3180
6080
40c0
c0c0
ffc0
c000
c000
c000
6000
6000
3040
0f80
0c00
1800
1e00
ENDCHAR
STARTCHAR ediaeresis
ENCODING 235
SWIDTH 530 0
DWIDTH 13 0
BBX 10 16 1 0
BITMAP
3180
3180
0000
1e00
3180
6080
40c0
c0c0
ffc0
c000
c000
c000
6000
6000
3040
0f80
ENDCHAR
STARTCHAR ecaron
ENCODING 236
SWIDTH 530 0
DWIDTH 13 0
BBX 10 17 1 0
BITMAP
6180
3300
1e00
0000
1e00
3180
6080
40c0
c0c0
ffc0
c000
c000
c000
6000
6000
3040
0f80
ENDCHAR
STARTCHAR iacute
ENCODING 237
SWIDTH 307 0
DWIDTH 7 0
BBX 6 17 1 0
BITMAP
1c
30
60
00
f0
30
30
30
30
30
30
30
30
30
30
30
fc
ENDCHAR
STARTCHAR icircumflex
ENCODING 238
SWIDTH 307 0
DWIDTH 7 0
BBX 8 17 2 0
BITMAP
3c
66
c3
00
78
18
18
18
18
18
18
18
18
18
18
18
7e
ENDCHAR
STARTCHAR dcaron
ENCODING 239
SWIDTH 708 0
DWIDTH 17 0
BBX 16 19 1 0
BITMAP
0007
0007
00f3
0031
0036
0034
1fb0
30f0
6030
4030
c030
c030
c030
c030
c030
c030
6070
70b0
1f3c
ENDCHAR
STARTCHAR dstroke
ENCODING 240
SWIDTH 666 0
DWIDTH 16 0
BBX 15 17 1 0
BITMAP
00f0
0030
01fe
0030
1fb0
30f0
6030
4030
c030
c030
c030
c030
c030
c030
6070
70b0
1f3c
ENDCHAR
STARTCHAR nacute
ENCODING 241
SWIDTH 633 0
DWIDTH 15 0
BBX 14 17 1 0
BITMAP
01c0
0300
0600
0000
f3c0
3460
3830
3030
3030
3030
3030
3030
3030
3030
3030
3030
fcfc
ENDCHAR
STARTCHAR ncaron
ENCODING 242
SWIDTH 633 0
DWIDTH 15 0
BBX 14 17 1 0
BITMAP
30c0
1980
0f00
0000
f3c0
3460
3830
3030
3030
3030
3030
3030
3030
3030
3030
3030
fcfc
ENDCHAR
STARTCHAR oacute
ENCODING 243
SWIDTH 602 0
DWIDTH 14 0
BBX 12 17 1 0
BITMAP
0380
0600
0c00
0000
1f80
30c0
6060
6060
c030
c030
c030
c030
c030
6060
6060
30c0
1f80
ENDCHAR
STARTCHAR ocircumflex
ENCODING 244
SWIDTH 602 0
DWIDTH 14 0
BBX 12 17 1 0
BITMAP
0f00
1980
30c0
0000
1f80
30c0
6060
6060
c030
c030
c030
c030
c030
6060
6060
30c0
1f80
ENDCHAR
STARTCHAR odoubleacute
ENCODING 245
SWIDTH 602 0
DWIDTH 14 0
BBX 12 17 1 0
BITMAP
0360
0480
0900
0000
1f80
30c0
6060
6060
c030
c030
c030
c030
c030
6060
6060
30c0
1f80
ENDCHAR
STARTCHAR odiaeresis
ENCODING 246
SWIDTH 602 0
DWIDTH 14 0
BBX 12 16 1 0
BITMAP
3180
3180
0000
1f80
30c0
6060
6060
c030
c030
c030
c030
c030
6060
6060
30c0
1f80
ENDCHAR
STARTCHAR division
ENCODING 247
SWIDTH 608 0
DWIDTH 15 0
BBX 14 12 0 1
BITMAP
0300
0300
0000
0000
0000
0000
fffc
0000
0000
0000
0300
0300
ENDCHAR
STARTCHAR rcaron
ENCODING 248
SWIDTH 440 0
DWIDTH 11 0
BBX 9 17 1 0
BITMAP
6180
3300
1e00
0000
f780
3c80
3080
3080
3000
3000
3000
3000
3000
3000
3000
3000
fc00
ENDCHAR
STARTCHAR uring
ENCODING 249
SWIDTH 633 0
DWIDTH 15 0
BBX 14 17 0 0
BITMAP
0600
0900
0600
0000
f0f0
3030
3030
3030
3030
3030
3030
3030
3030
3030
3030
18f0
0f3c
ENDCHAR
STARTCHAR uacute
ENCODING 250
SWIDTH 633 0
DWIDTH 15 0
BBX 14 17 0 0
BITMAP
01c0
0300
0600
0000
f0f0
3030
3030
3030
3030
3030
3030
3030
3030
3030
3030
18f0
0f3c
ENDCHAR
STARTCHAR udoubleacute
ENCODING 251
SWIDTH 633 0
DWIDTH 15 0
BBX 14 17 0 0
BITMAP
0360
0480
0900
0000
f0f0
3030
3030
3030
3030
3030
3030
3030
3030
3030
3030
18f0
0f3c
ENDCHAR
STARTCHAR udiaeresis
ENCODING 252
SWIDTH 633 0
DWIDTH 15 0
BBX 14 16 0 0
BITMAP
0c60
0c60
0000
f0f0
3030
3030
3030
3030
3030
3030
3030
3030
3030
3030
18f0
0f3c
ENDCHAR
STARTCHAR yacute
ENCODING 253
SWIDTH 551 0
DWIDTH 13 0
BBX 13 22 0 -5
BITMAP
0380
0600
0c00
0000
fc78
7010
3010
3020
1820
1840
1c40
0cc0
0c80
0680
0700
0700
0200
0200
0600
0c00
1c00
3800
ENDCHAR
STARTCHAR tcedilla
ENCODING 254
SWIDTH 392 0
DWIDTH 9 0
BBX 8 22 1 -6
BITMAP
30
30
30
ff
30
30
30
30
30
30
30
30
30
30
38
1f
18
10
08
04
04
38
ENDCHAR
STARTCHAR abovedot
ENCODING 255
SWIDTH 602 0
DWIDTH 14 0
BBX 2 2 6 15
BITMAP
c0
c0
ENDCHAR
ENDFONT
